<?xml version="1.0" encoding="UTF-8" standalone="no"?>
<!-- Created with Inkscape (http://www.inkscape.org/) -->

<svg
   width="274.09756mm"
   height="271.63589mm"
   viewBox="0 0 274.09756 271.63589"
   version="1.1"
   id="svg1"
   xml:space="preserve"
   xmlns:inkscape="http://www.inkscape.org/namespaces/inkscape"
   xmlns:sodipodi="http://sodipodi.sourceforge.net/DTD/sodipodi-0.dtd"
   xmlns="http://www.w3.org/2000/svg"
   xmlns:svg="http://www.w3.org/2000/svg"><sodipodi:namedview
     id="namedview1"
     pagecolor="#ffffff"
     bordercolor="#000000"
     borderopacity="0.25"
     inkscape:showpageshadow="2"
     inkscape:pageopacity="0.0"
     inkscape:pagecheckerboard="0"
     inkscape:deskcolor="#d1d1d1"
     inkscape:document-units="mm" /><defs
     id="defs1" /><g
     inkscape:label="Layer 1"
     inkscape:groupmode="layer"
     id="layer1"
     transform="translate(33.406598,-10.286615)"><path
       style="fill:#0a89ff;fill-opacity:1"
       d="m 94.66658,281.85036 c -0.291041,-0.0489 -2.076979,-0.22367 -3.96875,-0.38841 -3.436092,-0.29923 -4.780109,-0.47639 -9.260417,-1.2207 -3.236321,-0.53764 -4.460667,-0.78718 -8.466667,-1.72561 -4.980242,-1.16665 -4.762142,-1.11163 -8.598958,-2.16928 -9.179832,-2.53051 -23.931273,-9.01146 -31.55427,-13.86318 -0.983754,-0.62611 -1.845624,-1.13839 -1.915266,-1.13839 -0.295525,0 -7.93918,-5.30526 -10.980465,-7.62126 -12.1593197,-9.25954 -22.8515778,-20.53725 -30.591995,-32.26704 -4.667921,-7.07375 -5.433978,-8.38931 -8.973063,-15.40962 -1.203956,-2.38822 -1.751423,-3.58766 -2.898369,-6.35 -0.39274,-0.94588 -0.875908,-2.07698 -1.073707,-2.51354 -1.408706,-3.10916 -4.039808,-11.10047 -5.431804,-16.49773 -1.409272,-5.46424 -1.681998,-6.766 -2.5857,-12.34185 -0.484575,-2.98984 -0.659566,-4.36728 -1.378119,-10.84792 -0.374292,-3.37574 -0.538786,-16.72027 -0.244608,-19.84375 0.12335,-1.30968 0.34896,-3.75047 0.501354,-5.42395 0.411241,-4.51595 1.41139,-11.18653 2.122354,-14.15521 0.139402,-0.58209 0.450522,-1.9513 0.691378,-3.04271 0.240857,-1.09141 0.537052,-2.34156 0.658212,-2.77813 0.12116,-0.43656 0.344979,-1.27 0.497374,-1.85208 0.152395,-0.58208 0.530081,-1.89177 0.839302,-2.91042 0.30922,-1.01864 0.65647,-2.20927 0.771665,-2.64583 0.452345,-1.71428 2.609217,-7.549833 3.73949,-10.117427 0.271554,-0.616878 0.493734,-1.200323 0.493734,-1.296546 0,-0.18243 0.238028,-0.697109 2.884935,-6.238003 1.650461,-3.454987 5.599329,-10.483704 7.85435,-13.98021 1.288802,-1.998343 5.6339696,-8.209777 5.9126707,-8.452187 0.083653,-0.07276 0.5023134,-0.608541 0.9303554,-1.190625 0.428042,-0.582083 0.8445699,-1.117864 0.9256177,-1.190625 0.081048,-0.07276 0.8126641,-0.965729 1.625814,-1.984375 C 1.0630923,55.545661 7.9843009,48.42878 13.02013,44.119195 c 0.933516,-0.798889 1.826485,-1.572195 1.984375,-1.718457 2.5932,-2.402226 16.44894,-12.301776 17.217976,-12.301776 0.06845,0 0.751837,-0.397119 1.518648,-0.882486 2.319188,-1.467976 10.029394,-5.529436 11.988326,-6.315021 0.576148,-0.23105 1.702384,-0.718087 2.502749,-1.082302 2.288194,-1.041271 4.46344,-1.929753 6.614583,-2.701736 2.894811,-1.038863 7.642087,-2.642746 8.863542,-2.994578 5.270158,-1.51803 5.033913,-1.460655 13.229167,-3.212853 2.080705,-0.444868 7.936234,-1.30103 12.567709,-1.837578 1.236927,-0.143296 5.317598,-0.408577 9.068157,-0.589512 5.378748,-0.259483 7.781978,-0.261188 11.377088,-0.0081 5.82458,0.410086 12.91459,1.221355 16.46413,1.883896 0.72761,0.135811 2.03729,0.377808 2.91042,0.537771 1.93267,0.354079 4.96157,1.002268 6.21771,1.330597 0.50932,0.133127 1.75948,0.430831 2.77812,0.661565 1.01865,0.230733 2.14974,0.518947 2.51354,0.640476 0.36381,0.121529 1.19724,0.370337 1.85209,0.552908 3.8954,1.08604 11.35044,3.712806 15.74271,5.546902 2.87141,1.199028 13.30301,6.54527 15.27401,7.827997 0.54258,0.353113 1.04754,0.642025 1.12213,0.642025 0.0746,0 1.81409,1.073479 3.86557,2.385509 10.7967,6.905052 22.24078,16.993293 30.30959,26.718656 5.68777,6.855497 10.98636,14.580823 14.97129,21.828125 1.58932,2.890445 5.6076,11.128833 6.68541,13.706596 1.66766,3.988498 4.10436,11.163311 5.27423,15.529861 0.0975,0.3638 0.35808,1.3163 0.57913,2.11667 0.50722,1.8365 1.0908,4.4503 1.65405,7.40833 1.19129,6.25635 1.1701,6.10909 2.05626,14.2875 0.77605,7.16214 0.55528,21.28661 -0.42595,27.25208 -0.13165,0.80037 -0.37666,2.52677 -0.54447,3.83646 -0.63763,4.97655 -2.69633,14.78091 -3.69452,17.59479 -0.12905,0.3638 -0.67347,2.09021 -1.20981,3.83646 -1.68476,5.48527 -4.16125,11.6113 -7.16631,17.72708 -2.16335,4.40276 -2.45674,4.96049 -4.31471,8.20208 -7.7216,13.47191 -18.96901,27.06393 -30.96611,37.42127 -3.39061,2.92717 -3.4919,3.01157 -4.63021,3.85775 -0.58208,0.4327 -1.11787,0.85476 -1.19063,0.93791 -0.63972,0.73109 -10.31553,7.24637 -13.29179,8.95013 -0.47488,0.27185 -1.63732,0.9404 -2.58321,1.48567 -2.82819,1.63036 -10.47147,5.33617 -12.82832,6.21974 -0.43437,0.16285 -1.17851,0.46699 -1.65364,0.67587 -2.17731,0.95722 -2.80727,1.19308 -6.28783,2.35425 -2.03729,0.67966 -3.91091,1.34689 -4.1636,1.48273 -0.25268,0.13584 -0.60283,0.24697 -0.77811,0.24697 -0.17527,0 -1.27822,0.29139 -2.45099,0.64752 -2.69376,0.81801 -8.4368,2.20374 -11.52501,2.78086 -5.07098,0.94765 -6.21352,1.12335 -12.30312,1.89202 -2.14204,0.27039 -22.257926,0.58518 -23.54792,0.36851 z m 51.72604,-93.27309 c 2.74742,-0.92091 5.19477,-3.04252 7.16415,-6.2106 1.23305,-1.98359 2.62544,-5.95433 2.62544,-7.48711 0,-1.2764 2.20552,-3.55493 4.14254,-4.27966 0.78846,-0.295 1.54815,-0.53636 1.68822,-0.53636 0.53369,0 0.22148,0.85583 -0.5486,1.50381 -0.77714,0.65392 -1.578,1.89301 -1.578,2.44149 0,0.6943 2.32548,2.14012 3.44221,2.14012 0.4159,0 3.09986,-1.65544 3.43696,-2.11988 0.38555,-0.53119 2.47386,-1.58429 3.14169,-1.58429 0.42402,0 2.24209,0.71382 4.04015,1.58626 1.79806,0.87244 3.51725,1.58682 3.82042,1.5875 0.30317,6.8e-4 0.63281,0.0828 0.73254,0.18257 0.0997,0.0997 0.62559,0.33606 1.16858,0.52518 1.87499,0.65305 5.34963,0.32356 7.66509,-0.72686 0.61688,-0.27985 1.22222,-0.50882 1.3452,-0.50882 0.40817,0 3.25982,-2.12153 3.97409,-2.95659 0.38658,-0.45194 1.10048,-1.51906 1.58645,-2.37136 1.11184,-1.94996 0.69561,-2.27949 -1.18823,-0.94072 -1.9193,1.36397 -2.74563,1.71592 -4.47466,1.90587 -1.89369,0.20803 -3.89539,-0.25611 -6.86236,-1.5912 -1.53388,-0.69022 -4.66791,-1.71893 -5.24129,-1.72039 -0.8602,-0.002 -2.56392,-0.51895 -2.56392,-0.77767 0,-0.12381 0.48194,-1.01839 1.07098,-1.98797 0.58903,-0.96957 1.19204,-2.08128 1.34,-2.47046 0.14797,-0.38918 0.43375,-1.06658 0.63508,-1.50532 0.47879,-1.04341 1.46898,-3.98889 1.73579,-5.16335 0.39865,-1.75486 1.30697,-5.95645 1.60156,-7.40833 0.64151,-3.16169 1.63654,-6.68646 2.24165,-7.94079 1.6662,-3.45386 4.70739,-5.13454 6.71028,-3.70835 1.87137,1.33253 2.67076,6.21208 1.40994,8.60643 -0.94942,1.80299 -2.11484,3.22822 -3.30263,4.0389 -1.41168,0.96349 -2.4964,1.18491 -3.43271,0.70073 -0.64359,-0.33282 -0.73025,-0.32238 -0.86565,0.10423 -0.42942,1.35299 0.66024,3.86641 2.02602,4.6732 0.72328,0.42725 0.94723,0.43916 2.29016,0.12185 0.81867,-0.19345 2.09534,-0.73669 2.83705,-1.20722 1.53968,-0.97675 3.64272,-3.20511 4.17914,-4.42816 1.01645,-2.31756 1.08682,-2.73267 1.08228,-6.38478 -0.004,-3.27097 -0.0708,-3.82881 -0.57072,-4.7699 -0.73307,-1.38003 -1.93622,-2.38664 -3.98293,-3.33229 -1.42356,-0.65773 -1.96735,-0.76135 -3.99541,-0.76135 -1.29117,0 -2.7523,0.13662 -3.24696,0.30361 -1.54637,0.52203 -5.32839,3.13759 -6.95825,4.81216 -1.69693,1.74348 -4.04122,5.14262 -4.30201,6.23777 -0.0897,0.37675 -0.24338,0.80406 -0.34146,0.94958 -0.46555,0.6907 -0.82574,2.7603 -1.86492,10.71562 -0.91608,7.01298 -1.8101,10.05417 -2.95562,10.05417 -0.70259,0 -2.65266,0.54774 -2.98472,0.83835 -0.13825,0.12099 -0.49543,0.22172 -0.79375,0.22384 -0.7074,0.005 -2.5958,0.66643 -4.20216,1.47181 -1.70183,0.85324 -1.8429,0.82401 -1.69443,-0.35119 0.31091,-2.46098 1.15555,-6.24336 1.60121,-7.17034 0.25002,-0.52005 0.21605,-0.68256 -0.2074,-0.99219 -0.75975,-0.55554 -3.36434,-0.47711 -4.42502,0.13325 -0.48126,0.27694 -1.26197,0.58406 -1.73491,0.68248 -0.56847,0.1183 -0.8599,0.33356 -0.8599,0.63515 0,1.07621 -1.43137,3.27689 -2.95735,4.54683 -2.3765,1.97774 -4.49899,2.8838 -6.76897,2.88956 -2.44713,0.006 -5.12142,-2.13692 -6.02706,-4.83 -0.63342,-1.88356 -0.62251,-7.57537 0.0189,-9.85151 0.24603,-0.87312 0.60057,-2.13211 0.78785,-2.79774 0.47097,-1.67394 1.8442,-4.89515 2.71307,-6.36412 1.11196,-1.87994 3.87022,-5.11814 5.36804,-6.30211 2.22081,-1.75545 3.46427,-2.19522 6.21965,-2.19972 3.84632,-0.006 5.10084,0.88258 5.66918,4.01678 0.33224,1.83217 0.10481,3.34132 -0.83583,5.54629 -1.13253,2.65478 -3.76618,4.78586 -5.92068,4.79085 -1.00899,0.002 -1.10564,-0.0673 -1.65021,-1.18814 -0.91567,-1.88473 -2.09192,-1.53579 -3.14531,0.93307 -0.64309,1.50725 1.92182,4.69904 3.86438,4.80887 3.98406,0.22525 7.12733,-0.90416 9.778,-3.51335 2.60348,-2.56274 3.57091,-4.96694 3.51745,-8.7413 -0.0308,-2.17761 -0.13461,-2.73397 -0.72054,-3.86334 -0.82292,-1.58613 -2.70889,-3.46891 -4.40129,-4.39383 -4.40293,-2.40626 -11.00325,-1.93171 -16.39246,1.17859 -5.21367,3.00898 -10.21195,9.57239 -12.46593,16.36941 -1.07268,3.23476 -1.12471,3.6016 -1.10697,7.80521 l 0.0179,4.23333 1.0143,1.85209 c 2.88489,5.26774 5.85534,7.62081 9.6656,7.65671 1.61191,0.0152 3.78441,-0.46192 4.3524,-0.95584 0.13824,-0.12022 0.3976,-0.21858 0.57635,-0.21858 0.47404,0 3.50101,-1.82092 4.71002,-2.83339 0.5719,-0.47893 1.13744,-0.87078 1.25677,-0.87078 0.28171,0 0.28108,0.87851 -8.7e-4,1.20386 -0.1198,0.13824 -0.43629,0.91882 -0.7033,1.73462 -0.65401,1.99817 -0.7672,2.11936 -3.04706,3.26212 -3.20519,1.60658 -6.46337,4.17202 -7.28696,5.73764 -0.54549,1.03697 -0.77479,3.95091 -0.40021,5.08589 0.8093,2.45221 4.16687,3.02414 8.74494,1.4896 z m -5.91211,-2.32883 c -1.3335,-1.4735 0.30732,-4.19589 4.22551,-7.01084 1.48219,-1.06484 2.08572,-1.22812 1.88127,-0.50895 -0.0724,0.25466 -0.37771,1.3844 -0.67848,2.51053 -0.90147,3.37533 -1.69192,4.65606 -3.19756,5.18094 -1.23342,0.42997 -1.72016,0.39251 -2.23074,-0.17168 z m -38.81415,-11.79356 c 2.73445,-1.76891 5.08148,-4.45216 6.50254,-7.43405 l 0.50436,-1.05833 0.17064,1.51214 c 0.45809,4.05939 2.8122,7.35691 5.70583,7.99246 0.97678,0.21453 3.91095,-0.41845 5.35526,-1.15528 1.97473,-1.00743 3.78694,-2.97158 5.12253,-5.55204 0.69122,-1.33549 1.25677,-2.6825 1.25677,-2.99334 v -0.56518 l -0.52917,0.56799 c -0.29104,0.3124 -0.52916,0.66432 -0.52916,0.78204 0,0.4821 -2.4725,2.99384 -3.67603,3.73438 -1.63517,1.00613 -3.46766,1.32764 -4.07954,0.71575 -0.86384,-0.86383 -1.08676,-2.34508 -0.72874,-4.84214 0.3763,-2.62452 0.97514,-6.0376 1.33437,-7.60511 0.78961,-3.4456 1.63452,-6.98564 1.8313,-7.67292 0.125,-0.43656 0.55476,-1.98438 0.95502,-3.43958 1.46474,-5.32531 2.07608,-7.18828 3.04982,-9.29399 0.54688,-1.18263 1.12574,-2.23146 1.28635,-2.33072 0.16062,-0.0993 0.29203,-0.34094 0.29203,-0.53706 0,-0.28778 -0.80408,-0.33919 -4.16719,-0.2664 l -4.16719,0.0902 -0.96294,1.24865 c -0.82007,1.0634 -1.66751,2.67123 -2.63738,5.00392 -0.22035,0.52996 -1.2396,4.24539 -1.77829,6.48229 -0.27308,1.13395 -0.77415,3.32615 -1.42119,6.21771 -0.53798,2.40416 -1.55112,6.33694 -1.84034,7.14375 -1.94424,5.42367 -6.07005,10.44702 -8.582912,10.45005 -1.475233,0.002 -1.672633,-0.53438 -1.412099,-3.83547 0.28561,-3.61881 0.26746,-3.53698 2.816901,-12.7 0.36439,-1.30968 0.75371,-2.79797 0.86515,-3.30729 1.11814,-5.11025 1.32706,-6.44098 1.32706,-8.45282 0,-4.99708 -2.32437,-8.31354 -6.852501,-9.77728 -1.969296,-0.63659 -6.416341,-0.30146 -9.777276,0.7368 -1.605581,0.496 -3.667123,2.34367 -5.303426,4.75323 -1.519604,2.23772 -1.916358,3.60364 -1.961968,6.75456 -0.03524,2.43483 0.02996,2.82605 0.717419,4.30489 0.795152,1.71049 1.507426,2.27308 2.579769,2.03761 1.174135,-0.25783 1.888726,-0.75273 2.511638,-1.73949 0.711314,-1.12679 0.773282,-1.99935 0.249441,-3.51229 -0.297208,-0.85838 -0.508902,-1.07501 -1.120496,-1.14662 -1.200249,-0.14052 -1.680098,-0.7545 -1.680098,-2.14973 0,-1.53799 1.059439,-3.75417 2.210165,-4.6233 1.00179,-0.75664 2.871367,-1.74858 4.139835,-2.19645 1.141468,-0.40304 3.940596,-0.43314 4.940093,-0.0531 1.85808,0.70644 2.622461,2.95425 1.918126,5.64062 -0.157042,0.59896 -0.409775,1.56528 -0.56163,2.14736 -0.463488,1.77663 -1.030791,3.67574 -1.26458,4.23333 -0.12203,0.29104 -0.517806,1.5412 -0.879503,2.77813 -0.361697,1.23693 -0.902062,3.08239 -1.200811,4.10104 -2.06796,7.05114 -2.668988,10.85248 -2.167232,13.70714 0.404527,2.30149 0.843843,3.34979 1.915162,4.56995 1.429081,1.62763 2.563048,1.99256 5.70079,1.83461 2.055039,-0.10346 2.290367,-0.17953 4.023323,-1.30057 z M 9.596264,153.58916 c 0.01225,-0.3663 1.950928,-3.20657 3.293104,-4.82458 3.261396,-3.93164 7.334919,-7.49064 10.604294,-9.26487 3.790733,-2.05716 8.764386,-4.42223 11.1125,-5.28421 1.455208,-0.5342 3.360208,-1.25237 4.233333,-1.59593 5.141919,-2.02326 12.088642,-3.99647 16.271876,-4.62201 1.091406,-0.1632 2.579687,-0.40566 3.307292,-0.5388 1.489071,-0.27246 8.818203,-0.99954 11.641667,-1.1549 1.018645,-0.056 2.86979,-0.28993 4.113655,-0.51973 1.243865,-0.2298 2.791678,-0.3984 3.439584,-0.37467 0.647906,0.0237 5.583323,-0.0943 10.967594,-0.26218 5.384271,-0.16794 13.301927,-0.37355 17.594797,-0.45692 9.64264,-0.18727 13.91176,-0.60525 20.24062,-1.98173 4.40753,-0.9586 8.62588,-2.67696 12.14137,-4.94582 6.62822,-4.2778 9.68676,-9.55228 9.68676,-16.70495 0,-4.015638 -2.14739,-8.816658 -5.41591,-12.108596 -2.22856,-2.244534 -3.65112,-3.098733 -7.0213,-4.216074 -2.08438,-0.69105 -2.55383,-0.74537 -6.4805,-0.749864 -3.49665,-0.004 -4.63725,0.09663 -6.5544,0.578271 -2.43046,0.610599 -4.85614,1.482211 -5.41442,1.945543 -0.75348,0.625333 0.0476,0.652108 1.68976,0.05648 0.96678,-0.350665 1.98004,-0.637573 2.2517,-0.637573 0.27165,0 0.70066,-0.107752 0.95334,-0.23945 0.25269,-0.131697 1.531,-0.374942 2.84068,-0.540544 2.57925,-0.32613 6.69495,-0.02022 8.73125,0.648965 0.99862,0.328174 3.28366,1.428531 3.57188,1.720035 0.0728,0.07359 0.59985,0.482677 1.17132,0.909086 1.8714,1.396379 3.08088,2.889791 4.191,5.174825 l 1.09259,2.248958 0.0115,3.307292 c 0.0124,3.568166 -0.40794,5.263656 -1.85175,7.468806 -0.35526,0.54258 -0.64592,1.08088 -0.64592,1.19621 0,0.11533 -0.79083,1.0242 -1.75739,2.01971 -4.35406,4.48442 -9.72207,6.54291 -20.46761,7.84877 -2.80904,0.34137 -14.66524,0.76691 -27.542291,0.98854 -7.439106,0.12803 -11.126145,0.28521 -11.377083,0.48499 -0.214583,0.17084 -2.69777,0.42561 -5.88427,0.60372 -3.032159,0.16949 -6.90169,0.55068 -8.598958,0.84709 -1.697268,0.29642 -3.740786,0.6452 -4.54115,0.77509 -0.800365,0.12988 -2.288646,0.42374 -3.307292,0.65302 -1.018646,0.22928 -2.387865,0.52617 -3.042709,0.65976 -4.006991,0.81743 -10.78857,3.03553 -16.536458,5.40868 -2.066528,0.85322 -8.127092,3.88679 -11.377084,5.69472 -3.862719,2.14879 -9.969649,6.84858 -11.948473,9.19535 -2.764684,3.27875 -7.2338192,11.37658 -7.2338192,13.10729 0,0.41703 0.2474138,0.18225 0.9192695,-0.87235 0.5055982,-0.79362 0.9223169,-1.53407 0.9260417,-1.64545 z"
       id="path1" /><path
       id="path5"
       style="fill:#000000"
       d="m 17.209055,195.44825 c 7.84726,-2.88593 8.413885,-3.11896 13.163773,-5.41375 5.800228,-2.80222 9.119573,-4.89656 14.732297,-9.2953 6.294751,-4.93325 12.677773,-12.37242 17.219245,-20.06837 1.637138,-2.77428 4.590557,-8.8721 6.281675,-12.96955 0.899771,-2.18008 1.844579,-4.44003 2.099573,-5.02211 0.254994,-0.58209 0.713049,-1.71318 1.017899,-2.51354 0.30485,-0.80037 1.290587,-3.30068 2.190526,-5.55625 0.899939,-2.25558 1.908195,-4.83272 2.240569,-5.72698 0.332373,-0.89427 0.73424,-1.86871 0.893037,-2.16542 0.158797,-0.29672 0.288722,-0.60684 0.288722,-0.68917 0,-0.52226 -6.427023,0.39549 -7.051966,1.00699 -0.167801,0.1642 -0.867045,1.60822 -1.553877,3.20895 -0.686832,1.60073 -1.460802,3.38667 -1.719933,3.96875 -0.25913,0.58208 -1.148571,2.66568 -1.976534,4.63021 -0.827963,1.96453 -1.672875,3.94705 -1.877581,4.40561 -0.204706,0.45855 -0.372192,0.90151 -0.372192,0.98435 0,0.0828 -0.284841,0.77921 -0.632979,1.54751 -0.348139,0.7683 -1.008557,2.28987 -1.467597,3.38128 -1.605047,3.81613 -1.997666,4.66245 -4.220379,9.09728 -3.5725,7.12798 -6.467304,11.15466 -11.913298,16.57144 -5.66934,5.63893 -12.536305,10.30773 -23.744446,16.14368 -1.723018,0.89716 -3.251823,1.72628 -3.397344,1.84249 -0.145521,0.11621 -0.800365,0.36565 -1.455209,0.55432 -1.616362,0.46568 -2.268743,0.91791 -2.649207,1.83643 -0.292099,0.70519 -0.222021,1.57936 0.126609,1.57936 0.07691,0 1.777291,-0.6022 3.778617,-1.33821 z M 79.855472,118.9721 c 0.2941,-0.14426 0.67285,-0.70325 0.841668,-1.2422 0.752079,-2.40099 4.169304,-9.02578 5.282313,-10.24053 0.266774,-0.29116 0.800978,-0.946 1.187121,-1.45521 1.992463,-2.62745 7.030297,-7.129252 10.278131,-9.184522 5.372895,-3.400037 8.928475,-4.560135 14.022915,-4.575343 3.60513,-0.01076 5.21121,-0.446657 5.8171,-1.578777 0.35449,-0.662363 0.13186,-1.95772 -0.43366,-2.523238 -1.03312,-1.033122 -8.88815,-0.09313 -13.84328,1.6566 -6.579402,2.32328 -13.067981,6.728452 -19.056825,12.93791 -4.094351,4.24517 -5.247815,5.75889 -8.13514,10.67592 -0.762128,1.29788 -2.97736,5.72945 -2.97736,5.95621 0,0.27231 6.383269,-0.11596 7.017017,-0.42682 z m -6.428307,-10.64744 c 7.656832,-2.90079 9.828595,-9.849107 5.316828,-17.010617 -1.598062,-2.536597 -4.520999,-4.426902 -7.361424,-4.760738 -1.888238,-0.221925 -2.149238,0.270563 -0.524315,0.989343 1.652617,0.731032 2.123477,1.16593 3.119565,2.881312 0.796944,1.372432 0.845011,1.605711 0.845011,4.101041 0,2.363681 -0.06802,2.744587 -0.63788,3.571875 -1.918379,2.785004 -3.106141,3.439584 -6.241287,3.439584 -2.507713,0 -3.783659,-0.4538 -5.017613,-1.784568 -1.73876,-1.875174 -2.420158,-5.21874 -1.596928,-7.836001 0.6082,-1.933626 2.477663,-3.77658 4.092906,-4.034868 1.326806,-0.212165 1.935492,-1.018555 0.954653,-1.264729 -0.828695,-0.20799 -2.137189,0.03659 -3.523364,0.658569 -0.616878,0.276795 -1.242735,0.503264 -1.390794,0.503264 -0.14806,0 -1.082624,0.803672 -2.07681,1.785937 -2.958588,2.923114 -4.485378,7.050666 -3.806054,10.28936 0.744348,3.548706 3.02194,6.579786 6.072641,8.081646 2.283116,1.12397 3.11473,1.26499 6.820529,1.15658 2.610979,-0.0764 3.49109,-0.21264 4.954336,-0.76699 z" /></g></svg>
